:FULLY-SPECIFIED
:FORCE-ALL-JOINTS-BE-3DOF
:DEGREES
272
root 8.53322 15.6778 -25.0229 33.964 69.7313 34.0046
lfemur -26.3929 14.3535 -20.2942
ltibia 53.6906 0 0
lfoot -13.9791 -23.2208 0
ltoes 51.4803 0 0
rfemur -28.8587 1.85365 16.2293
rtibia 47.7305 0 0
rfoot -8.50543 -25.5188 0
rtoes 47.0144 0 0
lowerback 5.03196 -5.14122 -3.39553
upperback 2.53403 -6.93726 -0.945181
thorax 0.0924824 -3.46556 1.24521
lowerneck -4.80592 -10.2896 -5.09817
upperneck 3.41422 -13.7563 4.77259
head 2.81278 -6.81046 1.80922
lclavicle -4.03864e-015 2.08376e-014 0
lhumerus -46.4246 -37.18 110.057
lradius 61.6093 0 0
lwrist 16.1028 0 0
lhand 11.1983 12.3261 0
lfingers 7.12502 0 0
lthumb 36.2897 38.7569 0
rclavicle -4.03864e-015 2.08376e-014 0
rhumerus -64.155 3.95684 -94.2375
rradius 66.7161 0 0
rwrist 18.9582 0 0
rhand -22.619 -10.1481 0
rfingers 7.12502 0 0
rthumb 3.80886 -776.777 0
273
root 8.61033 15.6592 -24.9846 35.0412 70.7524 35.7773
lfemur -25.4759 13.6443 -20.4824
ltibia 53.6802 0 0
lfoot -13.9054 -24.2832 0
ltoes 52.1954 0 0
rfemur -29.8979 1.62377 16.7004
rtibia 48.2208 0 0
rfoot -7.15291 -24.9744 0
rtoes 46.681 0 0
lowerback 5.23414 -5.22038 -3.64077
upperback 2.71594 -7.04973 -1.20874
thorax 0.171782 -3.52213 1.12191
lowerneck -4.59115 -10.4773 -5.25631
upperneck 3.45723 -14.0158 4.97415
head 2.82774 -6.938 1.89332
lclavicle -3.20559e-015 2.0527e-014 0
lhumerus -46.0705 -37.4852 109.492
lradius 61.5086 0 0
lwrist 16.106 0 0
lhand 11.7153 12.4306 0
lfingers 7.12502 0 0
lthumb 36.7745 38.7039 0
rclavicle -3.20559e-015 2.0527e-014 0
rhumerus -64.8961 4.83658 -95.2312
rradius 66.9501 0 0
rwrist 18.8529 0 0
rhand -23.0825 -9.70097 0
rfingers 7.12502 0 0
rthumb 3.36132 -774.9 0
274
root 8.68553 15.6409 -24.9458 36.0828 71.7314 37.4999
lfemur -24.5666 12.9515 -20.6616
ltibia 53.6588 0 0
lfoot -13.8379 -25.3042 0
ltoes 52.8614 0 0
rfemur -30.9259 1.39143 17.1512
rtibia 48.7053 0 0
rfoot -5.82077 -24.4321 0
rtoes 46.3509 0 0
lowerback 5.43169 -5.2957 -3.88094
upperback 2.89446 -7.15695 -1.46808
thorax 0.249922 -3.57609 0.999728
lowerneck -4.38087 -10.661 -5.40682
upperneck 3.49514 -14.2696 5.17259
head 2.84081 -7.06282 1.97553
lclavicle -2.39914e-015 2.0212e-014 0
lhumerus -45.7267 -37.7921 108.94
lradius 61.4083 0 0
lwrist 16.1095 0 0
lhand 12.2266 12.5356 0
lfingers 7.12502 0 0
lthumb 37.2537 38.6523 0
rclavicle -2.39914e-015 2.0212e-014 0
rhumerus -65.5895 5.70022 -96.1796
rradius 67.1847 0 0
rwrist 18.7339 0 0
rhand -23.547 -9.27755 0
rfingers 7.12502 0 0
rthumb 2.91282 -773.026 0
275
root 8.75863 15.6231 -24.9064 37.0843 72.6649 39.1649
lfemur -23.6692 12.2789 -20.8313
ltibia 53.6273 0 0
lfoot -13.7767 -26.2781 0
ltoes 53.4725 0 0
rfemur -31.939 1.15782 17.5798
rtibia 49.1823 0 0
rfoot -4.51331 -23.8951 0
rtoes 46.0247 0 0
lowerback 5.62404 -5.36681 -4.11514
upperback 3.06901 -7.25838 -1.72197
thorax 0.326592 -3.62716 0.879404
lowerneck -4.17572 -10.8401 -5.54916
upperneck 3.52739 -14.5171 5.36727
head 2.85176 -7.18462 2.05555
lclavicle -1.62328e-015 1.98963e-014 0
lhumerus -45.3947 -38.0998 108.405
lradius 61.3089 0 0
lwrist 16.1128 0 0
lhand 12.7294 12.6401 0
lfingers 7.12502 0 0
lthumb 37.7249 38.6023 0
rclavicle -1.62328e-015 1.98963e-014 0
rhumerus -66.232 6.54545 -97.0795
rradius 67.42 0 0
rwrist 18.6019 0 0
rhand -24.0109 -8.87901 0
rfingers 7.12502 0 0
rthumb 2.46494 -771.171 0
276
root 8.82941 15.6058 -24.8667 38.0411 73.5496 40.765
lfemur -22.7877 11.63 -20.9911
ltibia 53.5868 0 0
lfoot -13.7214 -27.1996 0
ltoes 54.0232 0 0
rfemur -32.9337 0.924103 17.9843
rtibia 49.65 0 0
rfoot -3.23482 -23.3664 0
rtoes 45.7031 0 0
lowerback 5.81061 -5.43334 -4.34247
upperback 3.23899 -7.35351 -1.96918
thorax 0.401482 -3.67509 0.761662
lowerneck -3.97634 -11.0144 -5.68275
upperneck 3.55345 -14.7578 5.55753
head 2.8604 -7.30312 2.13311
lclavicle -8.81958e-016 1.95833e-014 0
lhumerus -45.0756 -38.4073 107.889
lradius 61.2108 0 0
lwrist 16.1157 0 0
lhand 13.2208 12.7433 0
lfingers 7.12502 0 0
lthumb 38.1853 38.554 0
rclavicle -8.81958e-016 1.95833e-014 0
rhumerus -66.8201 7.36994 -97.9278
rradius 67.6559 0 0
rwrist 18.4576 0 0
rhand -24.4725 -8.5065 0
rfingers 7.12502 0 0
rthumb 2.01923 -769.352 0
277
root 8.89767 15.5891 -24.8265 38.9487 74.3823 42.2929
lfemur -21.9262 11.0086 -21.1407
ltibia 53.5379 0 0
lfoot -13.6721 -28.063 0
ltoes 54.5079 0 0
rfemur -33.9063 0.691444 18.3628
rtibia 50.1066 0 0
rfoot -1.98958 -22.8491 0
rtoes 45.3865 0 0
lowerback 5.99083 -5.49493 -4.56203
upperback 3.4038 -7.44184 -2.20847
thorax 0.47428 -3.71963 0.647226
lowerneck -3.78339 -11.1832 -5.80705
upperneck 3.57279 -14.991 5.74271
head 2.86652 -7.41802 2.20794
lclavicle -1.79143e-016 1.92764e-014 0
lhumerus -44.7707 -38.7136 107.394
lradius 61.1148 0 0
lwrist 16.1178 0 0
lhand 13.698 12.8444 0
lfingers 7.12502 0 0
lthumb 38.6325 38.5076 0
rclavicle -1.79143e-016 1.92764e-014 0
rhumerus -67.3504 8.17139 -98.7214
rradius 67.8923 0 0
rwrist 18.3015 0 0
rhand -24.9303 -8.1612 0
rfingers 7.12502 0 0
rthumb 1.57727 -767.586 0
278
root 8.96319 15.5732 -24.7859 39.8026 75.1596 43.7412
lfemur -21.0889 10.4182 -21.2796
ltibia 53.4818 0 0
lfoot -13.6286 -28.8629 0
ltoes 54.9211 0 0
rfemur -34.8535 0.461017 18.7134
rtibia 50.5502 0 0
rfoot -0.781872 -22.3464 0
rtoes 45.0756 0 0
lowerback 6.16413 -5.5512 -4.77293
upperback 3.56283 -7.52285 -2.43861
thorax 0.544676 -3.76052 0.536822
lowerneck -3.59751 -11.3464 -5.92149
upperneck 3.58487 -15.216 5.92216
head 2.86991 -7.52905 2.27976
lclavicle 4.81199e-016 1.89791e-014 0
lhumerus -44.4811 -39.0177 106.921
lradius 61.0212 0 0
lwrist 16.1188 0 0
lhand 14.1583 12.9424 0
lfingers 7.12502 0 0
lthumb 39.0637 38.4634 0
rclavicle 4.81199e-016 1.89791e-014 0
rhumerus -67.8195 8.94747 -99.4571
rradius 68.1293 0 0
rwrist 18.1343 0 0
rhand -25.3825 -7.8443 0
rfingers 7.12502 0 0
rthumb 1.14062 -765.89 0
279
root 9.02578 15.5582 -24.745 40.5982 75.8782 45.1026
lfemur -20.2799 9.86265 -21.4074
ltibia 53.4192 0 0
lfoot -13.5908 -29.5936 0
ltoes 55.2571 0 0
rfemur -35.7715 0.23399 19.0344
rtibia 50.9793 0 0
rfoot 0.384015 -21.8613 0
rtoes 44.771 0 0
lowerback 6.32993 -5.60179 -4.97425
upperback 3.7155 -7.59603 -2.65837
thorax 0.61236 -3.7975 0.431177
lowerneck -3.41933 -11.5034 -6.02551
upperneck 3.58914 -15.4324 6.09523
head 2.87036 -7.63592 2.34831
lclavicle 1.0951e-015 1.86948e-014 0
lhumerus -44.2082 -39.3188 106.475
lradius 60.9307 0 0
lwrist 16.1183 0 0
lhand 14.5987 13.0366 0
lfingers 7.12502 0 0
lthumb 39.4764 38.4216 0
rclavicle 1.0951e-015 1.86948e-014 0
rhumerus -68.2241 9.69588 -100.132
rradius 68.3668 0 0
rwrist 17.9566 0 0
rhand -25.8277 -7.55697 0
rfingers 7.12502 0 0
rthumb 0.710858 -764.28 0
280
root 9.08523 15.5441 -24.7037 41.3311 76.5349 46.3696
lfemur -19.5032 9.34548 -21.5236
ltibia 53.3511 0 0
lfoot -13.5585 -30.2497 0
ltoes 55.5104 0 0
rfemur -36.6568 0.0115325 19.3236
rtibia 51.3918 0 0
rfoot 1.5038 -21.3971 0
rtoes 44.4733 0 0
lowerback 6.48766 -5.64633 -5.1651
upperback 3.8612 -7.66087 -2.86652
thorax 0.677021 -3.83032 0.331016
lowerneck -3.24951 -11.6539 -6.11855
upperneck 3.58507 -15.6394 6.26125
head 2.86766 -7.73833 2.4133
lclavicle 1.6586e-015 1.8427e-014 0
lhumerus -43.9531 -39.6158 106.056
lradius 60.8438 0 0
lwrist 16.1161 0 0
lhand 15.0166 13.126 0
lfingers 7.12502 0 0
lthumb 39.8679 38.3822 0
rclavicle 1.6586e-015 1.8427e-014 0
rhumerus -68.5606 10.4143 -100.742
rradius 68.6048 0 0
rwrist 17.7691 0 0
rhand -26.264 -7.30038 0
rfingers 7.12502 0 0
rthumb 0.289547 -762.774 0
281
root 9.14133 15.531 -24.6622 41.9966 77.1264 47.5351
lfemur -18.7631 8.87037 -21.6279
ltibia 53.2784 0 0
lfoot -13.5316 -30.8255 0
ltoes 55.6754 0 0
rfemur -37.5059 -0.205185 19.5794
rtibia 51.7861 0 0
rfoot 2.57318 -20.9567 0
rtoes 44.183 0 0
lowerback 6.63674 -5.68445 -5.34458
upperback 3.99933 -7.71684 -3.06183
thorax 0.738349 -3.85871 0.237065
lowerneck -3.08869 -11.7974 -6.20006
upperneck 3.57213 -15.8364 6.41958
head 2.86161 -7.83601 2.47445
lclavicle 2.16774e-015 1.81792e-014 0
lhumerus -43.7171 -39.9078 105.667
lradius 60.7611 0 0
lwrist 16.1118 0 0
lhand 15.409 13.2098 0
lfingers 7.12502 0 0
lthumb 40.2357 38.3456 0
rclavicle 2.16774e-015 1.81792e-014 0
rhumerus -68.8258 11.1004 -101.285
rradius 68.8433 0 0
rwrist 17.5725 0 0
rhand -26.69 -7.0757 0
rfingers 7.12502 0 0
rthumb -0.121744 -761.387 0
282
root 9.19388 15.519 -24.6204 42.5903 77.6494 48.5915
lfemur -18.0636 8.44099 -21.7199
ltibia 53.202 0 0
lfoot -13.51 -31.3157 0
ltoes 55.7465 0 0
rfemur -38.3153 -0.414993 19.7997
rtibia 52.1604 0 0
rfoot 3.5879 -20.5434 0
rtoes 43.9008 0 0
lowerback 6.77661 -5.7158 -5.51178
upperback 4.1293 -7.76345 -3.24306
thorax 0.796032 -3.88242 0.150049
lowerneck -2.93752 -11.9337 -6.26947
upperneck 3.54976 -16.023 6.56956
head 2.852 -7.92867 2.53151
lclavicle 2.61854e-015 1.79548e-014 0
lhumerus -43.5014 -40.1937 105.31
lradius 60.6831 0 0
lwrist 16.105 0 0
lhand 15.7732 13.2872 0
lfingers 7.12502 0 0
lthumb 40.5771 38.3119 0
rclavicle 2.61854e-015 1.79548e-014 0
rhumerus -69.0162 11.7519 -101.758
rradius 69.0821 0 0
rwrist 17.3674 0 0
rhand -27.104 -6.88412 0
rfingers 7.12502 0 0
rthumb -0.521447 -760.138 0
283
root 9.24266 15.5083 -24.5784 43.1076 78.1006 49.5316
lfemur -17.4088 8.06098 -21.7991
ltibia 53.1227 0 0
lfoot -13.4936 -31.7145 0
ltoes 55.7181 0 0
rfemur -39.0813 -0.616723 19.9827
rtibia 52.5129 0 0
rfoot 4.54365 -20.1602 0
rtoes 43.6273 0 0
lowerback 6.90668 -5.73998 -5.66581
upperback 4.25051 -7.80017 -3.40897
thorax 0.849762 -3.90119 0.0706947
lowerneck -2.79664 -12.0622 -6.32622
upperneck 3.51745 -16.1983 6.71053
head 2.83862 -8.01602 2.58418
lclavicle 3.00704e-015 1.77573e-014 0
lhumerus -43.3073 -40.4728 104.988
lradius 60.6103 0 0
lwrist 16.0955 0 0
lhand 16.1064 13.3572 0
lfingers 7.12502 0 0
lthumb 40.8896 38.2814 0
rclavicle 3.00704e-015 1.77573e-014 0
rhumerus -69.1284 12.3664 -102.157
rradius 69.3214 0 0
rwrist 17.1544 0 0
rhand -27.5044 -6.7268 0
rfingers 7.12502 0 0
rthumb -0.907994 -759.042 0
284
root 9.28748 15.4989 -24.5362 43.544 78.4766 50.348
lfemur -16.8028 7.73403 -21.8651
ltibia 53.0416 0 0
lfoot -13.4822 -32.0165 0
ltoes 55.5846 0 0
rfemur -39.8004 -0.809204 20.1265
rtibia 52.8417 0 0
rfoot 5.43615 -19.8102 0
rtoes 43.363 0 0
lowerback 7.02639 -5.75665 -5.80576
upperback 4.36235 -7.8265 -3.55835
thorax 0.899226 -3.91477 -0.000272471
lowerneck -2.66668 -12.1825 -6.36976
upperneck 3.47464 -16.3619 6.84184
head 2.82126 -8.09777 2.6322
lclavicle 3.32928e-015 1.75901e-014 0
lhumerus -43.136 -40.7438 104.703
lradius 60.5434 0 0
lwrist 16.0829 0 0
lhand 16.4057 13.4191 0
lfingers 7.12502 0 0
lthumb 41.1705 38.2541 0
rclavicle 3.32928e-015 1.75901e-014 0
rhumerus -69.159 12.9417 -102.479
rradius 69.5611 0 0
rwrist 16.9341 0 0
rhand -27.8896 -6.60493 0
rfingers 7.12502 0 0
rthumb -1.27982 -758.117 0
285
root 9.32812 15.4909 -24.4938 43.895 78.7743 51.0334
lfemur -16.2498 7.46376 -21.9176
ltibia 52.9595 0 0
lfoot -13.4757 -32.2162 0
ltoes 55.3406 0 0
rfemur -40.469 -0.991267 20.2292
rtibia 53.1452 0 0
rfoot 6.26112 -19.4966 0
rtoes 43.1085 0 0
lowerback 7.13516 -5.76543 -5.93074
upperback 4.46424 -7.84191 -3.68995
thorax 0.944114 -3.9229 -0.0621267
lowerneck -2.54831 -12.2943 -6.39952
upperneck 3.4208 -16.5131 6.96284
head 2.79971 -8.17364 2.67528
lclavicle 3.58129e-015 1.74568e-014 0
lhumerus -42.9887 -41.006 104.458
lradius 60.4828 0 0
lwrist 16.0669 0 0
lhand 16.6684 13.472 0
lfingers 7.12502 0 0
lthumb 41.4172 38.2304 0
rclavicle 3.58129e-015 1.74568e-014 0
rhumerus -69.1046 13.4754 -102.721
rradius 69.8011 0 0
rwrist 16.7073 0 0
rhand -28.2578 -6.51967 0
rfingers 7.12502 0 0
rthumb -1.63535 -757.38 0
